<?xml version="1.0" encoding="UTF-8"?><svg id="Calque_2" xmlns="http://www.w3.org/2000/svg" viewBox="0 0 41.82 103.07"><defs><style>.cls-1{stroke-width:0px;}</style></defs><g id="Calque_1-2"><path class="cls-1" d="m5.7,92.05l3.1-6.38h2.59l-4.51,8.51v4.96h-2.35v-4.96l-4.52-8.51h2.6l3.1,6.38Z"/><path class="cls-1" d="m11.6,94.04c0-.98.19-1.86.58-2.65.39-.79.93-1.39,1.64-1.81.7-.42,1.51-.63,2.42-.63,1.35,0,2.45.43,3.29,1.3.84.87,1.3,2.02,1.36,3.46v.53c0,.99-.18,1.87-.56,2.64-.38.78-.92,1.38-1.63,1.8s-1.52.64-2.45.64c-1.41,0-2.54-.47-3.39-1.41s-1.27-2.19-1.27-3.76v-.11Zm2.25.19c0,1.03.21,1.84.64,2.42s1.02.87,1.78.87,1.35-.3,1.77-.89c.42-.59.63-1.46.63-2.6,0-1.01-.22-1.81-.65-2.4s-1.02-.89-1.77-.89-1.32.29-1.75.87c-.43.58-.65,1.45-.65,2.61Z"/><path class="cls-1" d="m22.42,94.06c0-1.55.37-2.79,1.1-3.72.73-.93,1.7-1.39,2.91-1.39,1.14,0,2.04.4,2.69,1.19l.1-1.01h2.03v9.7c0,1.31-.41,2.35-1.23,3.11-.82.76-1.92,1.14-3.31,1.14-.73,0-1.45-.15-2.15-.46s-1.23-.7-1.6-1.2l1.06-1.35c.69.82,1.54,1.23,2.55,1.23.75,0,1.33-.2,1.77-.61s.65-1,.65-1.78v-.67c-.65.72-1.51,1.08-2.59,1.08-1.17,0-2.13-.47-2.87-1.4-.74-.93-1.11-2.22-1.11-3.87Zm2.24.19c0,1,.21,1.8.61,2.37.41.58.98.86,1.71.86.91,0,1.58-.39,2.02-1.17v-4.4c-.43-.76-1.09-1.14-2-1.14-.74,0-1.31.29-1.72.88-.41.59-.61,1.45-.61,2.59Z"/><path class="cls-1" d="m39.52,99.13c-.1-.19-.18-.5-.26-.93-.72.75-1.59,1.12-2.63,1.12s-1.83-.29-2.46-.86c-.63-.57-.95-1.28-.95-2.13,0-1.07.4-1.88,1.19-2.46s1.92-.86,3.4-.86h1.38v-.66c0-.52-.15-.93-.44-1.24-.29-.31-.73-.47-1.32-.47-.51,0-.93.13-1.26.38-.33.26-.49.58-.49.98h-2.25c0-.55.18-1.06.55-1.54.36-.48.86-.85,1.48-1.12.63-.27,1.32-.41,2.09-.41,1.17,0,2.11.29,2.8.88.7.59,1.05,1.42,1.07,2.48v4.51c0,.9.13,1.62.38,2.15v.16h-2.29Zm-2.47-1.62c.44,0,.86-.11,1.25-.32s.69-.51.88-.87v-1.89h-1.21c-.83,0-1.46.15-1.88.44-.42.29-.63.7-.63,1.23,0,.43.14.78.43,1.03s.67.38,1.15.38Z"/><path class="cls-1" d="m20.36,66.58c1.54-3.94-.93-5.73-4.83-6.69-2.47-.61-4.98-1.23-7.3-2.23-1.35-.58-3.19-1.86-3.3-2.97-.11-1.14,1.55-2.53,2.6-3.65.59-.63,1.5-.97,2.28-1.43,7.52-4.46,9-7.5,7.16-15.94-.28-1.28-1.94-2.28-3-3.36-3.5-3.58-7.35-6.88-10.42-10.78-1.99-2.52-1.27-5.34,2.05-7.01,2.81-1.41,5.48-3.09,8.2-4.67,2.29-1.34,4.91-2.29,4.99-5.74.02-.75,1.49-1.85,2.47-2.08.72-.17,2.41.71,2.48,1.28.71,5.75,5.87,6.76,9.65,9,8.28,4.89,8.88,7.77,2.18,14.87-1.72,1.82-3.76,3.64-6.03,4.58-3.47,1.44-4.18,3.82-4.04,7.11.39,8.82.72,17.65.94,26.48.06,2.23.03,4.62-.7,6.66-.53,1.48-2.3,2.53-3.52,3.77-.71-1.46-1.52-2.87-2.07-4.39-.23-.64.09-1.47.21-2.79Zm5.64-53.76c3.23,4.36,1.62,8.27-.9,12.16.37.22.75.44,1.12.66,2.54-2.42,5.08-4.83,8.24-7.84-3.5-2.06-5.98-3.52-8.46-4.98Zm-8.56.42c-.35-.26-.7-.52-1.05-.78-2.25,2.01-4.5,4.02-6.76,6.03l6.89,7.09c.42-.33.84-.66,1.26-.99-3.54-3.67-3.24-7.46-.35-11.34Z"/></g></svg>